<svg xmlns="http://www.w3.org/2000/svg" viewBox="0 0 365.69 365.69"><defs><style>.cls-1{fill:#fec41a;}</style></defs><g id="Слой_2" data-name="Слой 2"><g id="Слой_1-2" data-name="Слой 1"><g id="Слой_2-2" data-name="Слой 2"><g id="Слой_1-2-2" data-name="Слой 1-2"><path class="cls-1" d="M243.18,182.85,356.31,69.72a32,32,0,0,0,0-45.25L341.23,9.39a32,32,0,0,0-45.24,0L182.85,122.52,69.72,9.37a32,32,0,0,0-45.25,0L9.37,24.45a32,32,0,0,0,0,45.25L122.52,182.85,9.39,296a32,32,0,0,0,0,45.25l15.08,15.08a32,32,0,0,0,45.25,0L182.85,243.18,296,356.31a32,32,0,0,0,45.25,0l15.08-15.08a32,32,0,0,0,0-45.25Z"/></g></g></g></g></svg>